<svg width="160" height="40" viewBox="0 0 160 40" fill="none" xmlns="http://www.w3.org/2000/svg">
<mask id="mask0_135_2323" style="mask-type:alpha" maskUnits="userSpaceOnUse" x="0" y="0" width="160" height="40">
<mask id="mask1_135_2323" style="mask-type:alpha" maskUnits="userSpaceOnUse" x="0" y="0" width="41" height="40">
<path d="M36.9102 14.7261L36.6489 31.6363L20 14.9874L36.9102 14.7261Z" fill="#3D1797"/>
<path d="M28.2281 4.31372L40.0007 16.4559H16.4556L28.2281 4.31372Z" fill="#441EA1"/>
<path d="M14.7285 3.0929L31.6389 3.35426L14.9899 20.0032L14.7285 3.0929Z" fill="#4B24A9"/>
<path d="M4.31787 11.7726L16.4601 0V23.5452L4.31787 11.7726Z" fill="#522AB3"/>
<path d="M3.09131 25.2733L3.35267 8.36292L20.0016 25.0119L3.09131 25.2733Z" fill="#5931BC"/>
<path d="M11.7725 35.6852L0 23.543H23.5452L11.7725 35.6852Z" fill="#6037C5"/>
<path d="M25.2731 36.9081L8.36279 36.6469L25.0117 19.9979L25.2731 36.9081Z" fill="#673ECE"/>
<path d="M34.4485 29.4289C29.7066 34.0264 28.2837 35.4025 23.542 40V18.5293L34.4485 29.4289Z" fill="#6E44D8"/>
</mask>
<g mask="url(#mask1_135_2323)">
<path d="M36.9102 14.7261L36.6489 31.6363L20 14.9874L36.9102 14.7261Z" fill="#3D1797"/>
<path d="M28.2281 4.31372L40.0007 16.4559H16.4556L28.2281 4.31372Z" fill="#441EA1"/>
<path d="M14.7285 3.0929L31.6389 3.35426L14.9899 20.0032L14.7285 3.0929Z" fill="#4B24A9"/>
<path d="M4.31689 11.7726L16.4591 0V23.5452L4.31689 11.7726Z" fill="#522AB3"/>
<path d="M3.09082 25.2731L3.35218 8.36279L20.0011 25.0117L3.09082 25.2731Z" fill="#5931BC"/>
<path d="M11.7725 35.6852L0 23.543H23.5452L11.7725 35.6852Z" fill="#6037C5"/>
<path d="M25.4421 36.9101L8.53174 36.6488L25.1807 19.9999L25.4421 36.9101Z" fill="#673ECE"/>
<path d="M34.4485 29.4289C29.7066 34.0264 28.2837 35.4025 23.542 40V18.5293L34.4485 29.4289Z" fill="#6E44D8"/>
</g>
<path d="M69.7437 20.385C69.7437 24.1744 68.6436 27.2424 66.4434 29.5893C64.2678 31.9118 61.3585 33.073 57.7158 33.073C54.0488 33.073 51.1275 31.9118 48.9516 29.5893C46.776 27.267 45.688 24.1988 45.688 20.385C45.688 16.596 46.776 13.54 48.9516 11.2175C51.1519 8.87058 54.0734 7.69713 57.7158 7.69713C61.3829 7.69713 64.3044 8.85853 66.48 11.1808C68.6559 13.5033 69.7437 16.5713 69.7437 20.385ZM53.3521 14.8845C52.2766 16.2293 51.7386 18.0628 51.7386 20.385C51.7386 22.7076 52.2766 24.5534 53.3521 25.9223C54.4278 27.267 55.8823 27.9391 57.7158 27.9391C59.5494 27.9391 61.0041 27.267 62.0796 25.9223C63.1553 24.5534 63.6931 22.7076 63.6931 20.385C63.6931 18.0628 63.1553 16.2293 62.0796 14.8845C61.0041 13.5157 59.5494 12.831 57.7158 12.831C55.8823 12.831 54.4278 13.5157 53.3521 14.8845ZM87.3208 31.9362C85.8783 32.7186 84.1428 33.1096 82.1136 33.1096C79.3267 33.1096 77.0288 32.2295 75.2196 30.4694C73.4105 28.6848 72.506 26.3869 72.506 23.5754C72.555 20.7884 73.4594 18.4905 75.2196 16.6813C76.9798 14.8478 79.3877 13.9311 82.4437 13.9311C84.3262 13.9311 85.9517 14.2857 87.3208 14.9945V19.5783C86.025 18.7716 84.5828 18.3682 82.9937 18.3682C81.5025 18.3682 80.2924 18.8205 79.3633 19.725C78.4343 20.6051 77.9576 21.8885 77.9332 23.5754C78.0309 25.2135 78.5199 26.4846 79.4 27.3891C80.2801 28.2938 81.4412 28.7459 82.8837 28.7459C84.4239 28.7459 85.903 28.3181 87.3208 27.4624V31.9362ZM107.48 32.8163H102.126V29.846C101.149 31.9241 99.2662 32.9629 96.4792 32.9629C94.5724 32.9629 93.0812 32.4375 92.0054 31.3861C90.9543 30.3106 90.4286 28.7338 90.4286 26.6557V14.2244H95.7825V25.4455C95.7825 27.6214 96.7359 28.7092 98.6427 28.7092C100.965 28.7092 102.126 27.157 102.126 24.0521V14.2244H107.48V32.8163ZM117.421 32.8163H112.067V6.89038H117.421V32.8163ZM139.327 23.4287C139.327 26.2402 138.52 28.5625 136.906 30.396C135.317 32.2052 133.093 33.1096 130.232 33.1096C127.323 33.1096 125.074 32.2419 123.485 30.506C121.896 28.7459 121.101 26.4969 121.101 23.7587C121.101 20.8984 121.933 18.5515 123.595 16.718C125.257 14.8601 127.47 13.9311 130.232 13.9311C133.117 13.9311 135.354 14.8235 136.943 16.608C138.532 18.3928 139.327 20.6664 139.327 23.4287ZM127.555 19.6516C126.969 20.654 126.675 21.9498 126.675 23.5387C126.675 25.1278 126.969 26.4356 127.555 27.4624C128.167 28.4648 129.071 28.9659 130.269 28.9659C131.442 28.9659 132.31 28.4771 132.873 27.4991C133.459 26.4969 133.753 25.2012 133.753 23.612C133.753 19.9696 132.567 18.1482 130.196 18.1482C129.022 18.1482 128.142 18.6495 127.555 19.6516ZM159.876 32.8163H154.522V21.7418C154.522 20.6417 154.265 19.8106 153.752 19.2483C153.239 18.6615 152.517 18.3682 151.588 18.3682C150.611 18.3682 149.792 18.7595 149.131 19.5416C148.496 20.2997 148.178 21.4485 148.178 22.9886V32.8163H142.824V14.2244H148.178V17.3781C148.642 16.3513 149.351 15.5446 150.305 14.9578C151.283 14.3468 152.444 14.0411 153.789 14.0411C155.695 14.0411 157.187 14.6158 158.262 15.7646C159.338 16.8893 159.876 18.5515 159.876 20.7517V32.8163Z" fill="#3E1897"/>
</mask>
<g mask="url(#mask0_135_2323)">
<rect x="-19" y="-11" width="196" height="62" fill="#D9D9D9"/>
</g>
</svg>
